<svg width="80" height="57" viewBox="0 0 80 57" fill="none" xmlns="http://www.w3.org/2000/svg">
<circle cx="43.5" cy="27.5" r="27.5" fill="url(#paint0_radial_805_2917)"/>
<path d="M53.3886 37.3138C53.3889 37.3138 53.3877 37.3174 53.3839 37.3248C53.3863 37.3174 53.3882 37.3137 53.3886 37.3138ZM53.1837 37.2824C53.2431 37.3371 53.286 37.3826 53.3167 37.4188C53.286 37.455 53.2431 37.5004 53.1837 37.5552C52.8937 37.8223 52.3637 38.1548 51.5404 38.4755C49.9064 39.112 47.513 39.5487 44.7689 39.5487C42.0248 39.5487 39.6314 39.112 37.9974 38.4755C37.1741 38.1548 36.6442 37.8223 36.3541 37.5552C36.2947 37.5004 36.2518 37.455 36.2211 37.4188C36.2518 37.3826 36.2947 37.3371 36.3541 37.2824C36.6442 37.0153 37.1741 36.6828 37.9974 36.3621C39.6314 35.7256 42.0248 35.2888 44.7689 35.2888C47.513 35.2888 49.9064 35.7256 51.5404 36.3621C52.3637 36.6828 52.8937 37.0153 53.1837 37.2824ZM36.1492 37.3138C36.1496 37.3138 36.1515 37.3174 36.1539 37.3248C36.1501 37.3175 36.1489 37.3138 36.1492 37.3138ZM36.1492 37.5238C36.1489 37.5238 36.1501 37.5201 36.1539 37.5128C36.1515 37.5201 36.1496 37.5238 36.1492 37.5238ZM53.3839 37.5128C53.3877 37.5201 53.3889 37.5238 53.3886 37.5238C53.3882 37.5238 53.3863 37.5201 53.3839 37.5128Z" fill="#DE3E04" stroke="#DE3E04" stroke-width="4"/>
<path d="M36.1516 35.5524L34.166 33.5271V37.5776L36.1516 35.5524Z" fill="#DE3E04"/>
<path d="M53.3074 35.5526L55.293 37.5779V33.5273L53.3074 35.5526Z" fill="#DE3E04"/>
<line x1="34.666" y1="33.1299" x2="34.666" y2="37.5775" stroke="#DE3E04"/>
<line x1="42.5293" y1="33.2095" x2="42.5293" y2="33.8449" stroke="#BF660C"/>
<line x1="48.0098" y1="33.2095" x2="48.0098" y2="33.8449" stroke="#BF660C"/>
<path d="M50.6845 40.8728C48.6012 41.3597 47.2921 41.479 44.807 41.5397L44.8084 37.1703C47.262 37.1908 48.5921 37.1242 50.6858 36.5033L50.6845 40.8728Z" fill="#F7BF14"/>
<path d="M40.5195 41.2251V36.9421C41.9286 37.173 42.8781 37.2336 44.8083 37.2397V41.2251V41.5486C42.8641 41.507 41.8397 41.463 40.5195 41.2251Z" fill="#ECB012"/>
<path d="M54.5378 39.0469L54.6172 34.6787C53.2082 34.9096 52.616 36.2807 50.6858 36.2868V40.2722V40.8339C52.5125 40.3971 53.9421 39.6029 54.5378 39.0469Z" fill="#ECB012"/>
<ellipse cx="44.7689" cy="33.13" rx="10.6029" ry="4.12996" fill="#FFCA1A"/>
<g filter="url(#filter0_i_805_2917)">
<ellipse cx="44.7697" cy="33.2094" rx="8.61733" ry="3.25632" fill="#FF8810"/>
</g>
<path d="M43.1399 33.5272L42.1074 33.8449V33.2095L43.1399 33.5272Z" fill="#BF660C" stroke="#BF660C"/>
<path d="M46.4773 33.527L47.5098 33.2093V33.8447L46.4773 33.527Z" fill="#BF660C" stroke="#BF660C"/>
<path d="M56.0565 31.7652C56.0569 31.7652 56.0557 31.7688 56.0519 31.7762C56.0543 31.7688 56.0562 31.7652 56.0565 31.7652ZM55.8517 31.7338C55.9111 31.7885 55.954 31.834 55.9847 31.8702C55.954 31.9064 55.9111 31.9519 55.8517 32.0066C55.5616 32.2737 55.0317 32.6062 54.2083 32.9269C52.5743 33.5634 50.1809 34.0002 47.4369 34.0002C44.6928 34.0002 42.2994 33.5634 40.6654 32.9269C39.8421 32.6062 39.3121 32.2737 39.0221 32.0066C38.9626 31.9519 38.9197 31.9064 38.889 31.8702C38.9197 31.834 38.9626 31.7885 39.0221 31.7338C39.3121 31.4667 39.8421 31.1342 40.6654 30.8135C42.2994 30.177 44.6928 29.7402 47.4369 29.7402C50.1809 29.7402 52.5743 30.177 54.2083 30.8135C55.0317 31.1342 55.5616 31.4667 55.8517 31.7338ZM38.8172 31.7652C38.8176 31.7652 38.8194 31.7688 38.8218 31.7762C38.8181 31.7689 38.8169 31.7652 38.8172 31.7652ZM38.8172 31.9752C38.8169 31.9752 38.8181 31.9715 38.8218 31.9642C38.8194 31.9716 38.8176 31.9752 38.8172 31.9752ZM56.0519 31.9642C56.0557 31.9715 56.0569 31.9752 56.0565 31.9752C56.0562 31.9752 56.0543 31.9716 56.0519 31.9642Z" fill="#DE3E04" stroke="#DE3E04" stroke-width="4"/>
<path d="M38.8195 30.0038L36.834 27.9785V32.0291L38.8195 30.0038Z" fill="#DE3E04"/>
<path d="M55.9754 30.004L57.9609 32.0293V27.9788L55.9754 30.004Z" fill="#DE3E04"/>
<line x1="37.334" y1="27.5813" x2="37.334" y2="32.029" stroke="#DE3E04"/>
<line x1="45.1973" y1="27.6609" x2="45.1973" y2="28.2963" stroke="#BF660C"/>
<line x1="50.6777" y1="27.6609" x2="50.6777" y2="28.2963" stroke="#BF660C"/>
<path d="M53.3524 35.3242C51.2692 35.8111 49.9601 35.9304 47.475 35.9912L47.4764 31.6217C49.9299 31.6422 51.26 31.5756 53.3538 30.9547L53.3524 35.3242Z" fill="#F7BF14"/>
<path d="M43.1875 35.6766V31.3936C44.5965 31.6244 45.5461 31.6851 47.4763 31.6912V35.6766V36.0001C45.5321 35.9584 44.5076 35.9144 43.1875 35.6766Z" fill="#ECB012"/>
<path d="M57.2057 33.4984L57.2852 29.1301C55.8761 29.361 55.284 30.7321 53.3537 30.7382V34.7236V35.2854C55.1805 34.8485 56.6101 34.0543 57.2057 33.4984Z" fill="#ECB012"/>
<ellipse cx="47.4369" cy="27.5814" rx="10.6029" ry="4.12996" fill="#FFCA1A"/>
<g filter="url(#filter1_i_805_2917)">
<ellipse cx="47.4376" cy="27.6609" rx="8.61733" ry="3.25632" fill="#FF8810"/>
</g>
<path d="M45.8079 27.9786L44.7754 28.2963V27.6609L45.8079 27.9786Z" fill="#BF660C" stroke="#BF660C"/>
<path d="M49.1452 27.9785L50.1777 27.6608V28.2961L49.1452 27.9785Z" fill="#BF660C" stroke="#BF660C"/>
<path d="M56.0565 27.1585C56.0569 27.1585 56.0557 27.1622 56.0519 27.1695C56.0543 27.1621 56.0562 27.1585 56.0565 27.1585ZM55.8517 27.1271C55.9111 27.1818 55.954 27.2273 55.9847 27.2635C55.954 27.2997 55.9111 27.3452 55.8517 27.3999C55.5616 27.667 55.0317 27.9995 54.2083 28.3202C52.5743 28.9567 50.1809 29.3935 47.4369 29.3935C44.6928 29.3935 42.2994 28.9567 40.6654 28.3202C39.8421 27.9995 39.3121 27.667 39.0221 27.3999C38.9626 27.3452 38.9197 27.2997 38.889 27.2635C38.9197 27.2273 38.9626 27.1818 39.0221 27.1271C39.3121 26.86 39.8421 26.5275 40.6654 26.2068C42.2994 25.5703 44.6928 25.1335 47.4369 25.1335C50.1809 25.1335 52.5743 25.5703 54.2083 26.2068C55.0317 26.5275 55.5616 26.86 55.8517 27.1271ZM38.8172 27.1585C38.8176 27.1585 38.8194 27.1622 38.8218 27.1695C38.8181 27.1622 38.8169 27.1585 38.8172 27.1585ZM38.8172 27.3685C38.8169 27.3685 38.8181 27.3648 38.8218 27.3575C38.8194 27.3649 38.8176 27.3685 38.8172 27.3685ZM56.0519 27.3575C56.0557 27.3648 56.0569 27.3685 56.0565 27.3685C56.0562 27.3685 56.0543 27.3649 56.0519 27.3575Z" fill="#DE3E04" stroke="#DE3E04" stroke-width="4"/>
<path d="M38.8195 25.3971L36.834 23.3718V27.4224L38.8195 25.3971Z" fill="#DE3E04"/>
<path d="M55.9754 25.3973L57.9609 27.4226V23.3721L55.9754 25.3973Z" fill="#DE3E04"/>
<line x1="37.334" y1="22.9746" x2="37.334" y2="27.4223" stroke="#DE3E04"/>
<line x1="45.1973" y1="23.0542" x2="45.1973" y2="23.6896" stroke="#BF660C"/>
<line x1="50.6777" y1="23.0542" x2="50.6777" y2="23.6896" stroke="#BF660C"/>
<path d="M53.3524 30.7175C51.2692 31.2044 49.9601 31.3237 47.475 31.3845L47.4764 27.015C49.9299 27.0355 51.26 26.9689 53.3538 26.3481L53.3524 30.7175Z" fill="#F7BF14"/>
<path d="M43.1875 31.0699V26.7869C44.5965 27.0177 45.5461 27.0784 47.4763 27.0845V31.0699V31.3934C45.5321 31.3517 44.5076 31.3077 43.1875 31.0699Z" fill="#ECB012"/>
<path d="M57.2057 28.8917L57.2852 24.5234C55.8761 24.7543 55.284 26.1254 53.3537 26.1315V30.1169V30.6787C55.1805 30.2418 56.6101 29.4476 57.2057 28.8917Z" fill="#ECB012"/>
<ellipse cx="47.4369" cy="22.9747" rx="10.6029" ry="4.12996" fill="#FFCA1A"/>
<g filter="url(#filter2_i_805_2917)">
<ellipse cx="47.4376" cy="23.0542" rx="8.61733" ry="3.25632" fill="#FF8810"/>
</g>
<path d="M45.8079 23.3719L44.7754 23.6896V23.0542L45.8079 23.3719Z" fill="#BF660C" stroke="#BF660C"/>
<path d="M49.1452 23.3718L50.1777 23.0541V23.6895L49.1452 23.3718Z" fill="#BF660C" stroke="#BF660C"/>
<path d="M56.0565 22.3138C56.0569 22.3138 56.0557 22.3174 56.0519 22.3248C56.0543 22.3174 56.0562 22.3137 56.0565 22.3138ZM55.8517 22.2824C55.9111 22.3371 55.954 22.3826 55.9847 22.4188C55.954 22.455 55.9111 22.5004 55.8517 22.5552C55.5616 22.8223 55.0317 23.1548 54.2083 23.4755C52.5743 24.112 50.1809 24.5487 47.4369 24.5487C44.6928 24.5487 42.2994 24.112 40.6654 23.4755C39.8421 23.1548 39.3121 22.8223 39.0221 22.5552C38.9626 22.5004 38.9197 22.455 38.889 22.4188C38.9197 22.3826 38.9626 22.3371 39.0221 22.2824C39.3121 22.0153 39.8421 21.6828 40.6654 21.3621C42.2994 20.7256 44.6928 20.2888 47.4369 20.2888C50.1809 20.2888 52.5743 20.7256 54.2083 21.3621C55.0317 21.6828 55.5616 22.0153 55.8517 22.2824ZM38.8172 22.3138C38.8176 22.3138 38.8194 22.3174 38.8218 22.3248C38.8181 22.3175 38.8169 22.3138 38.8172 22.3138ZM38.8172 22.5238C38.8169 22.5238 38.8181 22.5201 38.8218 22.5128C38.8194 22.5201 38.8176 22.5238 38.8172 22.5238ZM56.0519 22.5128C56.0557 22.5201 56.0569 22.5238 56.0565 22.5238C56.0562 22.5238 56.0543 22.5201 56.0519 22.5128Z" fill="#DE3E04" stroke="#DE3E04" stroke-width="4"/>
<path d="M38.8195 20.5524L36.834 18.5271V22.5776L38.8195 20.5524Z" fill="#DE3E04"/>
<path d="M55.9754 20.5526L57.9609 22.5779V18.5273L55.9754 20.5526Z" fill="#DE3E04"/>
<line x1="37.334" y1="18.1299" x2="37.334" y2="22.5775" stroke="#DE3E04"/>
<line x1="45.1973" y1="18.2095" x2="45.1973" y2="18.8449" stroke="#BF660C"/>
<line x1="50.6777" y1="18.2095" x2="50.6777" y2="18.8449" stroke="#BF660C"/>
<path d="M53.3524 25.8728C51.2692 26.3597 49.9601 26.479 47.475 26.5397L47.4764 22.1703C49.9299 22.1908 51.26 22.1242 53.3538 21.5033L53.3524 25.8728Z" fill="#F7BF14"/>
<path d="M43.1875 26.2251V21.9421C44.5965 22.173 45.5461 22.2336 47.4763 22.2397V26.2251V26.5486C45.5321 26.507 44.5076 26.463 43.1875 26.2251Z" fill="#ECB012"/>
<path d="M57.2057 24.0469L57.2852 19.6787C55.8761 19.9096 55.284 21.2807 53.3537 21.2868V25.2722V25.8339C55.1805 25.3971 56.6101 24.6029 57.2057 24.0469Z" fill="#ECB012"/>
<ellipse cx="47.4369" cy="18.13" rx="10.6029" ry="4.12996" fill="#FFCA1A"/>
<g filter="url(#filter3_i_805_2917)">
<ellipse cx="47.4376" cy="18.2094" rx="8.61733" ry="3.25632" fill="#FF8810"/>
</g>
<path d="M49.1452 18.527L50.1777 18.2093V18.8447L49.1452 18.527Z" fill="#BF660C"/>
<path d="M44.6973 18.1958C46.3432 17.8707 47.0754 17.4334 47.4635 15.4297C47.7876 17.1589 48.3382 17.8155 50.2568 18.1958C48.2815 18.5369 47.8101 19.2675 47.4635 20.9893C47.1252 19.0703 46.4322 18.5554 44.6973 18.1958Z" fill="url(#paint1_linear_805_2917)"/>
<circle cx="32.6699" cy="30.3428" r="10" fill="#DE3E04"/>
<line x1="23.1699" y1="28.72" x2="23.1699" y2="30.5313" stroke="#E2420D"/>
<line x1="43.0957" y1="28.72" x2="43.0957" y2="30.5313" stroke="#E2420D"/>
<g filter="url(#filter4_d_805_2917)">
<circle cx="32.6699" cy="28.8333" r="10" fill="#FFCA1A"/>
</g>
<g filter="url(#filter5_i_805_2917)">
<circle cx="32.7077" cy="28.8711" r="7.92453" fill="#FFB468"/>
</g>
<g filter="url(#filter6_d_805_2917)">
<path d="M28.9336 28.8149C31.1456 28.3779 32.1297 27.7902 32.6512 25.0974C33.0869 27.4213 33.8267 28.3037 36.4053 28.8149C33.7506 29.2732 33.117 30.2551 32.6512 32.5691C32.1966 29.9901 31.2653 29.2981 28.9336 28.8149Z" fill="url(#paint2_linear_805_2917)"/>
</g>
<path d="M31.1984 36.6823C29.8365 36.3423 29.1108 36.0238 27.9154 35.1729L26.8965 36.9464C28.0456 37.7274 28.7504 38.0571 30.104 38.4936L31.1984 36.6823Z" fill="#FFDB81"/>
<path d="M27.5001 34.8711L26.8209 34.1919L25.7266 36.041L26.4435 36.6447L27.5001 34.8711Z" fill="#FDD267"/>
<path d="M34.2406 21.0216C35.5968 21.3836 36.3173 21.7137 37.4988 22.5839L38.5462 20.827C37.4099 20.0276 36.7105 19.6865 35.3641 19.2282L34.2406 21.0216Z" fill="#FFDB81"/>
<g filter="url(#filter7_d_805_2917)">
<path d="M20 23.0712C22.3684 22.6033 23.4221 21.9741 23.9805 19.0908C24.4469 21.5791 25.2391 22.5238 28 23.0712C25.1576 23.5619 24.4792 24.6132 23.9805 27.0908C23.4937 24.3295 22.4966 23.5886 20 23.0712Z" fill="white"/>
</g>
<g filter="url(#filter8_d_805_2917)">
<path d="M52 20.5277C54.3684 20.1023 55.4221 19.5303 55.9805 16.9092C56.4469 19.1712 57.2391 20.0301 60 20.5277C57.1576 20.9738 56.4792 21.9295 55.9805 24.1819C55.4937 21.6716 54.4966 20.998 52 20.5277Z" fill="white"/>
</g>
<defs>
<filter id="filter0_i_805_2917" x="36.1523" y="29.9531" width="17.2344" height="10.5127" filterUnits="userSpaceOnUse" color-interpolation-filters="sRGB">
<feFlood flood-opacity="0" result="BackgroundImageFix"/>
<feBlend mode="normal" in="SourceGraphic" in2="BackgroundImageFix" result="shape"/>
<feColorMatrix in="SourceAlpha" type="matrix" values="0 0 0 0 0 0 0 0 0 0 0 0 0 0 0 0 0 0 127 0" result="hardAlpha"/>
<feOffset dy="4"/>
<feGaussianBlur stdDeviation="10"/>
<feComposite in2="hardAlpha" operator="arithmetic" k2="-1" k3="1"/>
<feColorMatrix type="matrix" values="0 0 0 0 0.491667 0 0 0 0 0.246862 0 0 0 0 0 0 0 0 1 0"/>
<feBlend mode="normal" in2="shape" result="effect1_innerShadow_805_2917"/>
</filter>
<filter id="filter1_i_805_2917" x="38.8203" y="24.4045" width="17.2344" height="10.5127" filterUnits="userSpaceOnUse" color-interpolation-filters="sRGB">
<feFlood flood-opacity="0" result="BackgroundImageFix"/>
<feBlend mode="normal" in="SourceGraphic" in2="BackgroundImageFix" result="shape"/>
<feColorMatrix in="SourceAlpha" type="matrix" values="0 0 0 0 0 0 0 0 0 0 0 0 0 0 0 0 0 0 127 0" result="hardAlpha"/>
<feOffset dy="4"/>
<feGaussianBlur stdDeviation="10"/>
<feComposite in2="hardAlpha" operator="arithmetic" k2="-1" k3="1"/>
<feColorMatrix type="matrix" values="0 0 0 0 0.491667 0 0 0 0 0.246862 0 0 0 0 0 0 0 0 1 0"/>
<feBlend mode="normal" in2="shape" result="effect1_innerShadow_805_2917"/>
</filter>
<filter id="filter2_i_805_2917" x="38.8203" y="19.7979" width="17.2344" height="10.5127" filterUnits="userSpaceOnUse" color-interpolation-filters="sRGB">
<feFlood flood-opacity="0" result="BackgroundImageFix"/>
<feBlend mode="normal" in="SourceGraphic" in2="BackgroundImageFix" result="shape"/>
<feColorMatrix in="SourceAlpha" type="matrix" values="0 0 0 0 0 0 0 0 0 0 0 0 0 0 0 0 0 0 127 0" result="hardAlpha"/>
<feOffset dy="4"/>
<feGaussianBlur stdDeviation="10"/>
<feComposite in2="hardAlpha" operator="arithmetic" k2="-1" k3="1"/>
<feColorMatrix type="matrix" values="0 0 0 0 0.491667 0 0 0 0 0.246862 0 0 0 0 0 0 0 0 1 0"/>
<feBlend mode="normal" in2="shape" result="effect1_innerShadow_805_2917"/>
</filter>
<filter id="filter3_i_805_2917" x="38.8203" y="14.9531" width="17.2344" height="10.5127" filterUnits="userSpaceOnUse" color-interpolation-filters="sRGB">
<feFlood flood-opacity="0" result="BackgroundImageFix"/>
<feBlend mode="normal" in="SourceGraphic" in2="BackgroundImageFix" result="shape"/>
<feColorMatrix in="SourceAlpha" type="matrix" values="0 0 0 0 0 0 0 0 0 0 0 0 0 0 0 0 0 0 127 0" result="hardAlpha"/>
<feOffset dy="4"/>
<feGaussianBlur stdDeviation="10"/>
<feComposite in2="hardAlpha" operator="arithmetic" k2="-1" k3="1"/>
<feColorMatrix type="matrix" values="0 0 0 0 0.491667 0 0 0 0 0.246862 0 0 0 0 0 0 0 0 1 0"/>
<feBlend mode="normal" in2="shape" result="effect1_innerShadow_805_2917"/>
</filter>
<filter id="filter4_d_805_2917" x="18.6699" y="14.8333" width="28" height="28" filterUnits="userSpaceOnUse" color-interpolation-filters="sRGB">
<feFlood flood-opacity="0" result="BackgroundImageFix"/>
<feColorMatrix in="SourceAlpha" type="matrix" values="0 0 0 0 0 0 0 0 0 0 0 0 0 0 0 0 0 0 127 0" result="hardAlpha"/>
<feOffset/>
<feGaussianBlur stdDeviation="2"/>
<feComposite in2="hardAlpha" operator="out"/>
<feColorMatrix type="matrix" values="0 0 0 0 0 0 0 0 0 0 0 0 0 0 0 0 0 0 0.25 0"/>
<feBlend mode="normal" in2="BackgroundImageFix" result="effect1_dropShadow_805_2917"/>
<feBlend mode="normal" in="SourceGraphic" in2="effect1_dropShadow_805_2917" result="shape"/>
</filter>
<filter id="filter5_i_805_2917" x="24.7832" y="20.9465" width="15.8496" height="15.8491" filterUnits="userSpaceOnUse" color-interpolation-filters="sRGB">
<feFlood flood-opacity="0" result="BackgroundImageFix"/>
<feBlend mode="normal" in="SourceGraphic" in2="BackgroundImageFix" result="shape"/>
<feColorMatrix in="SourceAlpha" type="matrix" values="0 0 0 0 0 0 0 0 0 0 0 0 0 0 0 0 0 0 127 0" result="hardAlpha"/>
<feOffset/>
<feGaussianBlur stdDeviation="10"/>
<feComposite in2="hardAlpha" operator="arithmetic" k2="-1" k3="1"/>
<feColorMatrix type="matrix" values="0 0 0 0 0.491667 0 0 0 0 0.246862 0 0 0 0 0 0 0 0 1 0"/>
<feBlend mode="normal" in2="shape" result="effect1_innerShadow_805_2917"/>
</filter>
<filter id="filter6_d_805_2917" x="8.93359" y="9.09741" width="47.4727" height="47.4717" filterUnits="userSpaceOnUse" color-interpolation-filters="sRGB">
<feFlood flood-opacity="0" result="BackgroundImageFix"/>
<feColorMatrix in="SourceAlpha" type="matrix" values="0 0 0 0 0 0 0 0 0 0 0 0 0 0 0 0 0 0 127 0" result="hardAlpha"/>
<feOffset dy="4"/>
<feGaussianBlur stdDeviation="10"/>
<feComposite in2="hardAlpha" operator="out"/>
<feColorMatrix type="matrix" values="0 0 0 0 0 0 0 0 0 0 0 0 0 0 0 0 0 0 0.25 0"/>
<feBlend mode="normal" in2="BackgroundImageFix" result="effect1_dropShadow_805_2917"/>
<feBlend mode="normal" in="SourceGraphic" in2="effect1_dropShadow_805_2917" result="shape"/>
</filter>
<filter id="filter7_d_805_2917" x="0" y="3.09082" width="48" height="48" filterUnits="userSpaceOnUse" color-interpolation-filters="sRGB">
<feFlood flood-opacity="0" result="BackgroundImageFix"/>
<feColorMatrix in="SourceAlpha" type="matrix" values="0 0 0 0 0 0 0 0 0 0 0 0 0 0 0 0 0 0 127 0" result="hardAlpha"/>
<feOffset dy="4"/>
<feGaussianBlur stdDeviation="10"/>
<feComposite in2="hardAlpha" operator="out"/>
<feColorMatrix type="matrix" values="0 0 0 0 0 0 0 0 0 0 0 0 0 0 0 0 0 0 0.25 0"/>
<feBlend mode="normal" in2="BackgroundImageFix" result="effect1_dropShadow_805_2917"/>
<feBlend mode="normal" in="SourceGraphic" in2="effect1_dropShadow_805_2917" result="shape"/>
</filter>
<filter id="filter8_d_805_2917" x="32" y="0.90918" width="48" height="47.2727" filterUnits="userSpaceOnUse" color-interpolation-filters="sRGB">
<feFlood flood-opacity="0" result="BackgroundImageFix"/>
<feColorMatrix in="SourceAlpha" type="matrix" values="0 0 0 0 0 0 0 0 0 0 0 0 0 0 0 0 0 0 127 0" result="hardAlpha"/>
<feOffset dy="4"/>
<feGaussianBlur stdDeviation="10"/>
<feComposite in2="hardAlpha" operator="out"/>
<feColorMatrix type="matrix" values="0 0 0 0 0 0 0 0 0 0 0 0 0 0 0 0 0 0 0.25 0"/>
<feBlend mode="normal" in2="BackgroundImageFix" result="effect1_dropShadow_805_2917"/>
<feBlend mode="normal" in="SourceGraphic" in2="effect1_dropShadow_805_2917" result="shape"/>
</filter>
<radialGradient id="paint0_radial_805_2917" cx="0" cy="0" r="1" gradientUnits="userSpaceOnUse" gradientTransform="translate(43.5 27.5) rotate(90) scale(27.5)">
<stop stop-color="#FFCA1A"/>
<stop offset="1" stop-color="#0B131E" stop-opacity="0"/>
</radialGradient>
<linearGradient id="paint1_linear_805_2917" x1="47.5051" y1="18.2375" x2="47.6736" y2="18.406" gradientUnits="userSpaceOnUse">
<stop stop-color="#FFEE83"/>
<stop offset="1" stop-color="#FFCA1A"/>
</linearGradient>
<linearGradient id="paint2_linear_805_2917" x1="32.7072" y1="28.871" x2="32.9336" y2="29.0974" gradientUnits="userSpaceOnUse">
<stop stop-color="#FFEE83"/>
<stop offset="1" stop-color="#FFCA1A"/>
</linearGradient>
</defs>
</svg>
