<svg width="32" height="24" viewBox="0 0 32 24" fill="none" xmlns="http://www.w3.org/2000/svg">
<path fill-rule="evenodd" clip-rule="evenodd" d="M10.8752 0.110823C9.20492 0.489714 7.64762 0.947883 5.84803 1.58982C5.25504 1.80136 5.00631 1.9034 4.91576 1.9723C4.8371 2.03215 4.46214 2.60065 4.02479 3.32317C2.47876 5.87724 1.34212 8.57019 0.714174 11.1666C0.335334 12.7332 0.136075 14.0792 0.0262441 15.8137C-0.00855547 16.3634 -0.00880561 18.1497 0.0258437 18.6835C0.092739 19.7139 0.107335 19.862 0.152024 19.9649C0.202571 20.0813 0.333156 20.1803 1.17889 20.7437C3.34822 22.1886 5.37794 23.1716 7.60639 23.8564C8.24833 24.0537 8.29089 24.0521 8.46929 23.8241C8.74539 23.4712 10.0161 21.3669 9.97636 21.3284C9.964 21.3164 9.81306 21.2503 9.64094 21.1815C9.23108 21.0178 8.67035 20.7673 8.32656 20.5945C8.04817 20.4545 7.39168 20.0879 7.35568 20.0523C7.34494 20.0416 7.44634 19.9387 7.581 19.8235C7.71567 19.7083 7.85579 19.5868 7.89237 19.5536L7.95892 19.4931L8.13021 19.5929C9.41141 20.339 11.3599 20.9045 13.4589 21.1393C14.449 21.2501 14.7332 21.2641 16 21.2641C17.2668 21.2641 17.5509 21.2501 18.5411 21.1393C20.6401 20.9045 22.5886 20.339 23.8698 19.5929L24.0411 19.4931L24.1076 19.5536C24.1442 19.5868 24.2843 19.7083 24.419 19.8235C24.5536 19.9387 24.655 20.0416 24.6443 20.0523C24.6083 20.0879 23.9518 20.4545 23.6734 20.5945C23.3296 20.7673 22.7689 21.0178 22.359 21.1815C22.1869 21.2503 22.0363 21.3161 22.0242 21.3277C21.9772 21.3734 23.3328 23.6018 23.5765 23.8794C23.6762 23.993 23.6845 23.997 23.8143 23.995C23.9542 23.9929 24.3221 23.8889 25.054 23.6445C27.1413 22.9474 29.435 21.7477 31.5562 20.2434C31.8712 20.02 31.8835 19.9941 31.9205 19.473C31.9904 18.4899 32.0001 18.217 32 17.2423C31.9998 15.645 31.9035 14.4408 31.6589 12.9781C31.1103 9.69701 29.8773 6.46554 27.9752 3.32317C27.5378 2.60065 27.1629 2.03215 27.0842 1.9723C26.8682 1.80798 24.7053 1.06473 23.1977 0.636815C22.1419 0.3371 20.6266 -0.0184573 20.5197 0.00841128C20.4382 0.0288885 20.3846 0.122226 19.95 1.00087C19.7557 1.39375 19.5955 1.71735 19.594 1.72C19.5926 1.72264 19.3663 1.69228 19.0913 1.65256C18.0793 1.50641 17.1943 1.44776 16 1.44776C14.8056 1.44776 13.9207 1.50641 12.9087 1.65256C12.6337 1.69228 12.4077 1.72264 12.4066 1.72C12.3254 1.52481 11.6 0.110622 11.5576 0.0648297C11.5178 0.0219452 11.4711 -0.00108834 11.4259 3.95428e-05C11.3874 0.000991973 11.1396 0.0508445 10.8752 0.110823ZM10.3795 10.1265C8.67857 10.3237 7.51276 12.113 7.89182 13.9444C8.01632 14.5459 8.28636 15.0694 8.69521 15.5018C8.95987 15.7817 9.16921 15.9375 9.50324 16.103C10.3741 16.5348 11.3372 16.4659 12.1593 15.913C12.5404 15.6567 12.9416 15.1918 13.1655 14.7469C13.2808 14.518 13.4113 14.1032 13.4598 13.8115C13.5111 13.5027 13.4984 12.8003 13.4365 12.5303C13.194 11.4722 12.5112 10.6407 11.5933 10.2856C11.2302 10.1452 10.7556 10.0829 10.3795 10.1265ZM21.1448 10.1166C20.0111 10.2197 19.0526 11.013 18.6677 12.1669C18.5547 12.5057 18.5267 12.6768 18.5115 13.1222C18.4943 13.6285 18.5324 13.9185 18.6707 14.3334C18.8318 14.8164 19.0659 15.1988 19.4167 15.5522C20.2702 16.4119 21.4486 16.6226 22.4967 16.103C22.8308 15.9375 23.0401 15.7817 23.3048 15.5018C23.7136 15.0694 23.9837 14.5459 24.1082 13.9444C24.4492 12.2969 23.5387 10.6444 22.0532 10.2148C21.8668 10.1609 21.3974 10.0925 21.2878 10.1033C21.2642 10.1056 21.1999 10.1116 21.1448 10.1166Z" fill="#3273FA"/>
</svg>
