<svg width="1213" height="839" viewBox="0 0 1213 839" fill="none" xmlns="http://www.w3.org/2000/svg">
<path fill-rule="evenodd" clip-rule="evenodd" d="M183.314 0.055268C183.314 9.93533 1059.79 738.622 1071.69 738.622C1082.27 738.622 1387 95.2853 1387 72.9297C1387 68.384 1194.17 64.9855 958.514 65.4013L530.028 66.147L693.572 157.864L857.116 249.581L984.563 250.326L1112 251.072L1070.06 344.28C1047 395.544 1023.76 437.488 1018.41 437.488C1013.07 437.488 822.981 337.956 596.008 216.312C369.021 94.6543 183.314 -2.65494 183.314 0.055268ZM422.729 432.713C492.543 544.434 549.653 639.621 549.653 644.224C549.653 648.812 490.777 652.584 418.817 652.584C346.858 652.584 287.982 649.142 287.982 644.941C287.982 640.725 301.968 606.854 319.055 569.657L350.129 502.017L293.817 410.515L237.506 319.013L118.759 579.007L0 839H512.509C794.394 839 1022.57 836.734 1019.57 833.967C1014.33 829.12 353.622 277.17 314.79 245.193C304.35 236.603 352.929 320.978 422.729 432.713Z" fill="#8A0023"/>
</svg>
