<svg width="32" height="26" viewBox="0 0 32 26" fill="none" xmlns="http://www.w3.org/2000/svg">
<path fill-rule="evenodd" clip-rule="evenodd" d="M21.0622 0.0685478C18.4885 0.559157 16.5478 2.30978 15.8152 4.80165C15.6782 5.26749 15.6431 5.53772 15.6184 6.31413C15.6005 6.87362 15.6167 7.41168 15.6579 7.63244C15.6963 7.83763 15.7177 8.01541 15.7055 8.02751C15.6934 8.03961 15.2677 8.00596 14.7595 7.95271C10.923 7.5507 7.39896 6.03066 4.4531 3.50704C3.85291 2.99286 2.76452 1.89814 2.40139 1.44326L2.18549 1.17291L2.04072 1.41175C1.85394 1.71992 1.53673 2.59495 1.40655 3.16099C1.33669 3.46456 1.30555 3.89234 1.30763 4.51806C1.31104 5.5335 1.44268 6.19111 1.82678 7.11171C2.19831 8.00205 3.01213 9.04194 3.88462 9.74096L4.13727 9.94344L3.72671 9.90203C3.11938 9.84078 2.24531 9.60319 1.68409 9.34677L1.18895 9.12059L1.2336 9.671C1.45038 12.3444 3.17282 14.5666 5.69478 15.4266C6.12809 15.5744 6.34329 15.675 6.27204 15.6965C5.7666 15.8493 4.46143 15.9074 3.83724 15.8048C3.67219 15.7778 3.53721 15.7675 3.53721 15.7821C3.53721 15.8974 3.92422 16.7428 4.16115 17.1449C4.49845 17.7174 5.27929 18.5778 5.85851 19.0153C6.339 19.3782 7.20404 19.8292 7.76923 20.0114C8.18555 20.1455 9.17464 20.336 9.45509 20.336C9.68343 20.336 9.59772 20.418 8.86381 20.9016C7.58467 21.7445 6.25714 22.336 4.81983 22.7036C3.56406 23.0247 2.65398 23.1245 1.21592 23.099C0.547131 23.0871 0 23.0834 0 23.0907C0 23.0981 0.244194 23.2479 0.542646 23.4238C4.29973 25.6379 8.78549 26.4602 13.2474 25.753C19.2517 24.8013 24.187 21.0792 26.8683 15.4802C28.085 12.9395 28.704 10.3703 28.7719 7.57957L28.7994 6.45031L29.3223 6.02827C30.0088 5.4742 31.1393 4.30606 31.6321 3.64146C31.8484 3.34999 32.0135 3.09974 31.9991 3.08537C31.9847 3.07106 31.8899 3.10213 31.7885 3.1545C31.2537 3.4304 29.757 3.84564 28.5819 4.04409C28.2943 4.09262 28.2832 4.10591 28.9468 3.60938C29.5145 3.18456 29.982 2.67246 30.4306 1.98404C30.7186 1.54214 31.1803 0.566909 31.1268 0.513594C31.1147 0.501494 30.7788 0.65709 30.3803 0.859321C29.4944 1.30884 28.6151 1.64133 27.7026 1.8718L27.0127 2.04598L26.5656 1.65747C25.7292 0.93047 24.8184 0.451267 23.7398 0.170451C23.0682 -0.00436613 21.715 -0.0559164 21.0622 0.0685478Z" fill="#3273FA"/>
</svg>
